<?xml version="1.0" encoding="utf-8"?>
<!-- Generator: Adobe Illustrator 25.0.1, SVG Export Plug-In . SVG Version: 6.00 Build 0)  -->
<svg version="1.1" id="Layer_1" xmlns="http://www.w3.org/2000/svg" xmlns:xlink="http://www.w3.org/1999/xlink" x="0px" y="0px"
	 viewBox="0 0 20 20" style="enable-background:new 0 0 20 20;" xml:space="preserve">
<style type="text/css">
	.st0{fill:#FFFFFF;}
</style>
<path class="st0" d="M19.95,2.83c-0.73,0.32-1.52,0.54-2.34,0.64c0.84-0.5,1.49-1.3,1.79-2.26c-0.79,0.47-1.66,0.81-2.59,0.99
	c-0.74-0.8-1.81-1.29-2.98-1.29c-2.25,0-4.08,1.83-4.08,4.08c0,0.32,0.04,0.63,0.11,0.93c-3.39-0.17-6.4-1.79-8.42-4.27
	c-0.35,0.6-0.55,1.31-0.55,2.05c0,1.42,0.72,2.66,1.82,3.4C2.03,7.09,1.4,6.91,0.85,6.6c0,0.02,0,0.04,0,0.05
	c0,1.98,1.41,3.63,3.28,4c-0.34,0.09-0.7,0.14-1.08,0.14c-0.26,0-0.52-0.02-0.77-0.07c0.52,1.62,2.03,2.8,3.81,2.84
	c-1.4,1.1-3.16,1.75-5.07,1.75c-0.33,0-0.66-0.02-0.98-0.06c1.81,1.16,3.95,1.83,6.26,1.83c7.51,0,11.62-6.22,11.62-11.62
	c0-0.18,0-0.35-0.01-0.53C18.71,4.37,19.4,3.65,19.95,2.83z"/>
</svg>
