<?xml version="1.0" encoding="utf-8"?>
<!-- Generator: Adobe Illustrator 25.0.1, SVG Export Plug-In . SVG Version: 6.00 Build 0)  -->
<svg version="1.1" id="Layer_1" xmlns="http://www.w3.org/2000/svg" xmlns:xlink="http://www.w3.org/1999/xlink" x="0px" y="0px"
	 viewBox="0 0 20 20" style="enable-background:new 0 0 20 20;" xml:space="preserve">
<style type="text/css">
	.st0{fill:#FFFFFF;}
</style>
<g>
	<path class="st0" d="M16.27,9.48H3.84c-1.98,0-3.58,1.6-3.58,3.58v2.88c0,1.97,1.6,3.58,3.58,3.58h12.43c1.98,0,3.58-1.6,3.58-3.58
		v-2.88C19.85,11.08,18.25,9.48,16.27,9.48z M6.45,11.72H5.3v5.74H4.18v-5.74H3.02v-0.98h3.43V11.72z M9.72,17.46H8.73v-0.54
		c-0.18,0.2-0.37,0.35-0.57,0.46c-0.2,0.11-0.39,0.16-0.58,0.16c-0.23,0-0.4-0.07-0.52-0.22c-0.12-0.15-0.18-0.37-0.18-0.66v-4.15
		h0.99v3.8c0,0.12,0.02,0.2,0.06,0.25c0.04,0.05,0.11,0.08,0.2,0.08c0.07,0,0.16-0.03,0.28-0.1c0.11-0.07,0.22-0.16,0.31-0.27v-3.77
		h0.99V17.46z M13.31,16.44c0,0.35-0.08,0.62-0.23,0.81c-0.15,0.19-0.38,0.28-0.67,0.28c-0.2,0-0.37-0.04-0.52-0.11
		c-0.15-0.07-0.3-0.18-0.42-0.34v0.38h-1v-6.72h1v2.16c0.13-0.15,0.27-0.27,0.42-0.34c0.15-0.08,0.3-0.12,0.46-0.12
		c0.31,0,0.55,0.11,0.72,0.32c0.16,0.21,0.25,0.52,0.25,0.93V16.44z M16.75,15.11h-1.89v0.93c0,0.26,0.03,0.44,0.09,0.54
		c0.07,0.1,0.18,0.15,0.34,0.15c0.16,0,0.28-0.04,0.34-0.13c0.07-0.09,0.1-0.27,0.1-0.56v-0.23h1.02v0.25
		c0,0.51-0.12,0.89-0.37,1.15c-0.25,0.26-0.62,0.38-1.11,0.38c-0.45,0-0.79-0.13-1.05-0.41c-0.25-0.27-0.38-0.64-0.38-1.12v-2.23
		c0-0.43,0.14-0.78,0.42-1.05c0.28-0.27,0.64-0.41,1.08-0.41c0.45,0,0.8,0.13,1.05,0.38c0.24,0.25,0.36,0.61,0.36,1.08V15.11z"/>
	<path class="st0" d="M15.29,13.25c-0.16,0-0.27,0.05-0.34,0.14c-0.07,0.09-0.1,0.23-0.1,0.44v0.5h0.87v-0.5
		c0-0.21-0.04-0.36-0.1-0.44C15.56,13.3,15.45,13.25,15.29,13.25z"/>
	<path class="st0" d="M11.88,13.23c-0.07,0-0.14,0.02-0.21,0.05c-0.07,0.03-0.14,0.09-0.2,0.15v3.09c0.08,0.08,0.16,0.14,0.23,0.18
		c0.08,0.04,0.16,0.05,0.24,0.05c0.12,0,0.21-0.03,0.27-0.1c0.06-0.07,0.09-0.18,0.09-0.34v-2.56c0-0.17-0.03-0.29-0.1-0.38
		C12.11,13.28,12.01,13.23,11.88,13.23z"/>
	<polygon class="st0" points="5.47,7.76 6.72,7.76 6.72,4.69 8.19,0.35 6.91,0.35 6.13,3.31 6.05,3.31 5.24,0.35 3.97,0.35 
		5.47,4.82 	"/>
	<path class="st0" d="M9.89,7.9c0.51,0,0.9-0.13,1.2-0.4c0.29-0.27,0.43-0.63,0.43-1.1V3.58c0-0.42-0.15-0.76-0.44-1.02
		c-0.3-0.27-0.67-0.4-1.14-0.4c-0.51,0-0.91,0.13-1.21,0.38c-0.3,0.25-0.45,0.59-0.45,1.01v2.83c0,0.47,0.15,0.83,0.44,1.11
		C9.01,7.76,9.4,7.9,9.89,7.9z M9.42,3.5c0-0.12,0.04-0.21,0.13-0.29c0.09-0.07,0.2-0.11,0.33-0.11c0.15,0,0.27,0.04,0.36,0.11
		c0.09,0.07,0.14,0.17,0.14,0.29v2.98c0,0.14-0.04,0.26-0.13,0.34c-0.09,0.08-0.21,0.12-0.36,0.12c-0.15,0-0.26-0.04-0.34-0.12
		c-0.08-0.08-0.12-0.2-0.12-0.35V3.5z"/>
	<path class="st0" d="M13.2,7.84c0.21,0,0.42-0.06,0.65-0.17c0.22-0.12,0.44-0.29,0.64-0.51v0.6h1.12V2.3h-1.12v4.15
		c-0.1,0.12-0.22,0.22-0.34,0.29c-0.13,0.08-0.23,0.12-0.31,0.12c-0.11,0-0.18-0.03-0.23-0.09c-0.05-0.06-0.07-0.15-0.07-0.28V2.3
		h-1.11v4.56c0,0.33,0.07,0.57,0.2,0.73C12.75,7.75,12.94,7.84,13.2,7.84z"/>
</g>
</svg>
