<?xml version="1.0" encoding="utf-8"?>
<!-- Generator: Adobe Illustrator 25.0.1, SVG Export Plug-In . SVG Version: 6.00 Build 0)  -->
<svg version="1.1" id="Layer_1" xmlns="http://www.w3.org/2000/svg" xmlns:xlink="http://www.w3.org/1999/xlink" x="0px" y="0px"
	 viewBox="0 0 20 20" style="enable-background:new 0 0 20 20;" xml:space="preserve">
<style type="text/css">
	.st0{fill:#FFFFFF;}
</style>
<g>
	<path class="st0" d="M19.43,7.42h-2.95V4.46c0-0.22-0.18-0.41-0.41-0.41h-0.84c-0.23,0-0.41,0.18-0.41,0.41v2.95h-2.95
		c-0.22,0-0.41,0.18-0.41,0.41v0.84c0,0.23,0.19,0.41,0.41,0.41h2.95v2.96c0,0.22,0.18,0.41,0.41,0.41h0.84
		c0.22,0,0.41-0.18,0.41-0.41V9.08h2.95c0.22,0,0.41-0.18,0.41-0.41V7.83C19.84,7.6,19.65,7.42,19.43,7.42z"/>
	<path class="st0" d="M9.5,10.01C8.88,9.57,8.31,8.92,8.3,8.72c0-0.36,0.03-0.53,0.84-1.16c1.05-0.82,1.62-1.9,1.62-3.04
		c0-1.03-0.32-1.95-0.85-2.6h0.42c0.09,0,0.17-0.03,0.24-0.08l1.16-0.84c0.14-0.1,0.2-0.29,0.15-0.46
		c-0.06-0.17-0.21-0.28-0.39-0.28H6.3c-0.57,0-1.15,0.1-1.72,0.3C2.69,1.22,1.37,2.83,1.37,4.49c0,2.35,1.82,4.13,4.25,4.18
		C5.57,8.86,5.54,9.04,5.54,9.22c0,0.36,0.09,0.71,0.28,1.04c-0.02,0-0.04,0-0.07,0c-2.32,0-4.41,1.14-5.2,2.83
		c-0.21,0.44-0.31,0.88-0.31,1.32c0,0.43,0.11,0.84,0.32,1.23c0.5,0.89,1.57,1.59,3.02,1.95c0.75,0.19,1.55,0.29,2.39,0.29
		c0.75,0,1.46-0.1,2.12-0.29c2.06-0.6,3.39-2.12,3.39-3.87C11.49,12.04,10.95,11.03,9.5,10.01z M2.94,13.85
		c0-1.22,1.55-2.29,3.32-2.29H6.3c0.39,0.01,0.76,0.06,1.12,0.17c0.12,0.08,0.24,0.16,0.35,0.24c0.82,0.56,1.36,0.93,1.51,1.52
		c0.04,0.15,0.05,0.3,0.05,0.44c0,1.52-1.14,2.29-3.37,2.29C4.26,16.22,2.94,15.18,2.94,13.85z M4.55,2.3
		c0.28-0.31,0.64-0.48,1.05-0.48h0.05c1.15,0.03,2.25,1.31,2.45,2.85C8.2,5.54,8.01,6.35,7.58,6.85C7.3,7.16,6.94,7.33,6.52,7.33
		l0,0H6.5c-1.12-0.03-2.25-1.36-2.45-2.9C3.94,3.57,4.12,2.79,4.55,2.3z"/>
</g>
</svg>
