<?xml version="1.0" encoding="utf-8"?>
<!-- Generator: Adobe Illustrator 25.0.1, SVG Export Plug-In . SVG Version: 6.00 Build 0)  -->
<svg version="1.1" id="Layer_1" xmlns="http://www.w3.org/2000/svg" xmlns:xlink="http://www.w3.org/1999/xlink" x="0px" y="0px"
	 viewBox="0 0 20 20" style="enable-background:new 0 0 20 20;" xml:space="preserve">
<style type="text/css">
	.st0{fill-rule:evenodd;clip-rule:evenodd;fill:#FFFFFF;}
</style>
<path class="st0" d="M19.48,7.88c-0.13-0.63-0.32-1.24-0.57-1.83c-0.24-0.58-0.55-1.14-0.9-1.66c-0.35-0.52-0.75-1-1.19-1.44
	c-0.44-0.44-0.93-0.84-1.44-1.19c-0.52-0.35-1.08-0.66-1.66-0.9c-0.59-0.25-1.21-0.44-1.83-0.57c-0.64-0.13-1.3-0.2-1.96-0.2
	c-0.66,0-1.32,0.07-1.96,0.2C7.35,0.42,6.73,0.61,6.14,0.86C5.56,1.1,5.01,1.41,4.49,1.76c-0.52,0.35-1,0.75-1.44,1.19
	C2.61,3.39,2.2,3.87,1.86,4.39C1.5,4.91,1.2,5.47,0.96,6.05C0.71,6.64,0.52,7.25,0.39,7.88c-0.13,0.64-0.2,1.3-0.2,1.96
	c0,0.66,0.07,1.32,0.2,1.96c0.13,0.63,0.32,1.24,0.57,1.83c0.24,0.58,0.55,1.14,0.9,1.66c0.35,0.51,0.75,1,1.19,1.44
	c0.44,0.44,0.93,0.84,1.44,1.19c0.52,0.35,1.08,0.66,1.66,0.9c0.59,0.25,1.21,0.44,1.83,0.57c0.64,0.13,1.3,0.2,1.96,0.2
	c0.66,0,1.32-0.07,1.96-0.2c0.63-0.13,1.24-0.32,1.83-0.57c0.58-0.24,1.14-0.55,1.66-0.9c0.52-0.35,1-0.75,1.44-1.19
	c0.44-0.44,0.84-0.93,1.19-1.44c0.35-0.52,0.65-1.08,0.9-1.66c0.25-0.59,0.44-1.21,0.57-1.83c0.13-0.64,0.2-1.3,0.2-1.96
	C19.68,9.18,19.62,8.52,19.48,7.88z M18.26,9.75c-0.12-0.02-2.94-0.63-5.8-0.27c-0.06-0.14-0.12-0.29-0.18-0.43
	c-0.17-0.41-0.36-0.81-0.55-1.21c3.29-1.34,4.62-3.27,4.64-3.29C17.53,5.97,18.24,7.78,18.26,9.75z M15.43,3.59
	c-0.02,0.03-1.21,1.84-4.35,3.01C9.66,3.99,8.1,1.92,7.97,1.75C8.61,1.6,9.26,1.52,9.94,1.52C12.04,1.52,13.97,2.3,15.43,3.59z
	 M7.94,1.76L7.94,1.76c0,0-0.01,0-0.03,0.01C7.92,1.76,7.93,1.76,7.94,1.76z M6.39,2.31c0.11,0.15,1.65,2.23,3.09,4.8
	c-4,1.06-7.46,1.02-7.68,1.02C2.33,5.55,4.06,3.41,6.39,2.31z M1.61,9.84c0-0.09,0-0.18,0.01-0.26c0.15,0,4.26,0.1,8.55-1.19
	c0.24,0.47,0.47,0.94,0.68,1.42c-0.11,0.03-0.22,0.06-0.33,0.1c-4.49,1.45-6.77,5.49-6.77,5.49l0,0C2.42,13.93,1.61,11.98,1.61,9.84
	z M9.94,18.16c-2.01,0-3.86-0.72-5.3-1.91c0.11,0.09,0.19,0.15,0.19,0.15s1.6-3.48,6.53-5.2c0.02-0.01,0.04-0.01,0.05-0.02
	c1.17,3.04,1.66,5.59,1.78,6.32C12.19,17.93,11.09,18.16,9.94,18.16z M14.59,16.74c-0.08-0.5-0.53-2.94-1.62-5.94
	c2.69-0.43,5.01,0.31,5.19,0.36C17.78,13.48,16.46,15.48,14.59,16.74z"/>
</svg>
