<svg xmlns="http://www.w3.org/2000/svg" viewBox="0 0 97.48 25.65"><defs><style>.cls-1{fill:#fff;}</style></defs><g id="Слой_2" data-name="Слой 2"><g id="Layer_1" data-name="Layer 1"><path class="cls-1" d="M9.85,15.73a8.41,8.41,0,0,0,4.24,1.2c2.42,0,3.83-1.28,3.83-3.13s-1-2.69-3.45-3.64C11.48,9.1,9.63,7.55,9.63,5c0-2.85,2.37-5,5.92-5A8.2,8.2,0,0,1,19.6.9L19,2.83A7.26,7.26,0,0,0,15.47,2C13,2,12,3.45,12,4.7c0,1.71,1.12,2.55,3.64,3.53,3.1,1.2,4.68,2.69,4.68,5.38s-2.1,5.27-6.42,5.27a9.39,9.39,0,0,1-4.67-1.17Z"/><path class="cls-1" d="M24,18.61,19.35.3h2.5L24,9.56c.54,2.28,1,4.57,1.36,6.33h.05c.3-1.82.87-4,1.49-6.35L29.38.3h2.47l2.23,9.29c.52,2.17,1,4.35,1.28,6.28h0c.38-2,.9-4,1.47-6.33L39.3.3h2.42L36.53,18.61H34.05L31.74,9.08a54.6,54.6,0,0,1-1.19-6h-.06a55.85,55.85,0,0,1-1.41,6l-2.61,9.53Z"/><path class="cls-1" d="M50.92,10H43.8v6.6h7.93v2H41.44V.3h9.89v2H43.8V8.07h7.12Z"/><path class="cls-1" d="M61.73,10H54.61v6.6h7.93v2H52.25V.3h9.89v2H54.61V8.07h7.12Z"/><path class="cls-1" d="M67,2.31H61.4V.3H75v2h-5.6v16.3H67Z"/><path class="cls-1" d="M79.27,18.61V10.84L73.49.3h2.69l2.58,5.05c.7,1.39,1.25,2.5,1.82,3.78h0c.52-1.2,1.14-2.39,1.85-3.78l2.63-5h2.7L81.66,10.81v7.8Z"/><path class="cls-1" d="M3.13,25.45a2.62,2.62,0,0,1-1.09.2,1.93,1.93,0,0,1-2-2.09,2.05,2.05,0,0,1,2.16-2.17,2.3,2.3,0,0,1,1,.18L3,22a1.89,1.89,0,0,0-.83-.18A1.54,1.54,0,0,0,.56,23.54,1.51,1.51,0,0,0,2.15,25.2,2.17,2.17,0,0,0,3,25Z"/><path class="cls-1" d="M13.22,24.29l-.43,1.29h-.55l1.4-4.12h.65l1.41,4.12h-.57l-.44-1.29Zm1.36-.42-.41-1.19c-.09-.27-.15-.51-.21-.75h0c-.06.24-.12.49-.2.74l-.41,1.2Z"/><path class="cls-1" d="M25,21.46h2.23v.44H25.57v1.38h1.56v.44H25.57v1.86H25Z"/><path class="cls-1" d="M38.89,23.65H37.28v1.49h1.79v.44H36.75V21.46H39v.44h-1.7v1.31h1.61Z"/><path class="cls-1" d="M49.38,21.91H48.12v-.45h3.06v.45H49.91v3.67h-.53Z"/><path class="cls-1" d="M62.5,23.65H60.9v1.49h1.79v.44H60.37V21.46H62.6v.44H60.9v1.31h1.6Z"/><path class="cls-1" d="M72.11,21.51a6,6,0,0,1,1-.09,1.7,1.7,0,0,1,1.2.34,1,1,0,0,1,.32.79,1.09,1.09,0,0,1-.77,1.05v0a1,1,0,0,1,.6.83,7.17,7.17,0,0,0,.32,1.13h-.55a5.13,5.13,0,0,1-.28-1c-.12-.57-.34-.78-.82-.8h-.51v1.78h-.53Zm.53,1.88h.55c.57,0,.93-.31.93-.78s-.38-.77-1-.78a2.49,2.49,0,0,0-.53.05Z"/><path class="cls-1" d="M84.67,21.46v4.12h-.53V21.46Z"/><path class="cls-1" d="M95,24.29l-.43,1.29H94l1.4-4.12h.65l1.41,4.12H96.9l-.44-1.29Zm1.35-.42L96,22.68c-.09-.27-.15-.51-.22-.75h0c-.06.24-.13.49-.21.74l-.4,1.2Z"/></g></g></svg>