<?xml version="1.0" encoding="utf-8"?>
<!-- Generator: Adobe Illustrator 25.0.1, SVG Export Plug-In . SVG Version: 6.00 Build 0)  -->
<svg version="1.1" id="Layer_1" xmlns="http://www.w3.org/2000/svg" xmlns:xlink="http://www.w3.org/1999/xlink" x="0px" y="0px"
	 viewBox="0 0 50 50" style="enable-background:new 0 0 50 50;" xml:space="preserve">
<style type="text/css">
	.st0{fill:#FEE600;}
	.st1{fill:#4F461B;}
	.st2{fill:#988831;}
</style>
<g>
	<path class="st0" d="M25.01,5.72c-6.6,0-12.44,3.27-15.98,8.28c7.31,11.01,18.83,18.12,31.79,18.12c0.86,0,1.71-0.04,2.56-0.1
		c0.77-2.1,1.19-4.37,1.19-6.74C44.57,14.48,35.81,5.72,25.01,5.72z"/>
	<g>
		<g>
			<path class="st1" d="M25.37,15.32c0,3.01-2.44,5.45-5.45,5.45c-3.01,0-5.45-2.44-5.45-5.45c0-3.01,2.44-5.45,5.45-5.45
				C22.92,9.87,25.37,12.31,25.37,15.32z"/>
			
				<ellipse transform="matrix(0.2298 -0.9732 0.9732 0.2298 8.285 45.8534)" class="st1" cx="33.11" cy="17.69" rx="4.43" ry="4.43"/>
			<path class="st1" d="M39.12,27.26c0,0.83-0.67,1.5-1.5,1.5c-0.83,0-1.5-0.67-1.5-1.5c0-0.83,0.67-1.5,1.5-1.5
				C38.45,25.76,39.12,26.43,39.12,27.26z"/>
		</g>
		<path class="st1" d="M25.01,50C11.38,50,0.29,38.91,0.29,25.28c0-13.63,11.09-24.72,24.72-24.72c13.63,0,24.72,11.09,24.72,24.72
			C49.73,38.91,38.64,50,25.01,50L25.01,50z M17.75,43.39c2.32,0.93,4.76,1.4,7.26,1.4c2.73,0,5.38-0.56,7.87-1.66
			c-1.25-0.98-1.96-2.44-1.96-4.02c0-2.82,2.3-5.11,5.12-5.11c1.97,0,3.78,1.15,4.62,2.93c2.53-3.39,3.86-7.41,3.86-11.65
			c0-10.76-8.75-19.51-19.51-19.51C14.25,5.77,5.5,14.52,5.5,25.28c0,4.45,1.47,8.64,4.24,12.13c0.94-0.82,2.13-1.28,3.37-1.28
			c2.82,0,5.11,2.29,5.11,5.12C18.23,41.99,18.07,42.71,17.75,43.39L17.75,43.39z M24.57,40.52c-1.51,0-2.74-1.23-2.74-2.74
			c0-1.51,1.23-2.74,2.74-2.74c1.51,0,2.74,1.23,2.74,2.74C27.32,39.28,26.09,40.52,24.57,40.52L24.57,40.52z M9.24,30.08
			c-0.77,0-1.4-0.63-1.4-1.4c0-0.77,0.63-1.4,1.4-1.4c0.77,0,1.4,0.63,1.4,1.4C10.64,29.45,10.01,30.08,9.24,30.08L9.24,30.08z"/>
	</g>
	<path class="st2" d="M36.04,34c1.97,0,3.78,1.15,4.62,2.93c1.13-1.52,2.01-3.17,2.65-4.9c-0.16,0.01-0.33,0.02-0.49,0.03
		c-0.66,0.04-1.32,0.06-1.99,0.06c-0.41,0-0.81-0.01-1.21-0.02c-0.91-0.03-1.82-0.1-2.72-0.2c-11.32-1.27-21.26-7.99-27.82-17.84
		C6.82,17.23,5.5,21.1,5.5,25.28c0,4.45,1.47,8.64,4.24,12.13c0.94-0.82,2.13-1.28,3.37-1.28c2.82,0,5.11,2.29,5.11,5.12
		c0,0.74-0.16,1.46-0.47,2.14c2.32,0.93,4.76,1.4,7.26,1.4c2.73,0,5.38-0.56,7.87-1.66c-1.25-0.98-1.96-2.44-1.96-4.02
		C30.92,36.29,33.22,34,36.04,34z M9.24,30.08c-0.77,0-1.4-0.63-1.4-1.4c0-0.77,0.63-1.4,1.4-1.4c0.77,0,1.4,0.63,1.4,1.4
		C10.64,29.45,10.01,30.08,9.24,30.08z M24.57,40.52c-1.51,0-2.74-1.23-2.74-2.74c0-1.51,1.23-2.74,2.74-2.74
		c1.51,0,2.74,1.23,2.74,2.74C27.32,39.28,26.09,40.52,24.57,40.52z"/>
</g>
</svg>
