<svg xmlns="http://www.w3.org/2000/svg" viewBox="0 0 62.75 60.12"><defs><style>.cls-1{fill:#fff;}</style></defs><g id="Слой_2" data-name="Слой 2"><g id="Layer_1" data-name="Layer 1"><path class="cls-1" d="M11.36,37.45h1.08V44.9H16v.9H11.36Z"/><path class="cls-1" d="M20.77,37.45V45.8H19.69V37.45Z"/><path class="cls-1" d="M25.13,37.45h1.08V44.9h3.58v.9H25.13Z"/><path class="cls-1" d="M34.29,45.8V42.26l-2.64-4.81h1.23l1.17,2.3c.33.63.58,1.14.84,1.72h0c.24-.54.52-1.09.84-1.72L37,37.45h1.23l-2.81,4.79V45.8Z"/><path class="cls-1" d="M43.15,37.31A14.44,14.44,0,0,1,42,40.25l-.69.08A18.19,18.19,0,0,0,42,37.42Z"/><path class="cls-1" d="M46.61,44.49a3.78,3.78,0,0,0,1.93.55c1.1,0,1.75-.59,1.75-1.43s-.44-1.23-1.58-1.66c-1.36-.49-2.2-1.19-2.2-2.37a2.41,2.41,0,0,1,2.7-2.27,3.8,3.8,0,0,1,1.85.41l-.3.88a3.3,3.3,0,0,0-1.59-.4c-1.14,0-1.57.68-1.57,1.25,0,.79.51,1.17,1.66,1.62,1.42.54,2.13,1.22,2.13,2.45s-1,2.41-2.92,2.41a4.43,4.43,0,0,1-2.14-.53Z"/><path class="cls-1" d="M0,51.62H4.5v.91H1.08V55.3H4.24v.9H1.08V60H0Z"/><path class="cls-1" d="M8.52,51.62H9.6v7.46h3.57V60H8.52Z"/><path class="cls-1" d="M23.52,55.71c0,2.88-1.75,4.41-3.89,4.41s-3.75-1.71-3.75-4.25,1.65-4.39,3.88-4.39S23.52,53.23,23.52,55.71ZM17,55.85c0,1.79,1,3.39,2.67,3.39s2.68-1.58,2.68-3.48c0-1.66-.87-3.4-2.67-3.4S17,54,17,55.85Z"/><path class="cls-1" d="M28.76,60l-2.12-8.36h1.15l1,4.23c.24,1,.47,2.08.62,2.89h0c.14-.83.4-1.82.68-2.9l1.12-4.22h1.13l1,4.24c.23,1,.46,2,.58,2.87h0c.18-.92.41-1.85.67-2.89l1.11-4.22h1.1L34.48,60H33.35L32.3,55.63c-.26-1.07-.43-1.89-.55-2.73h0a26.73,26.73,0,0,1-.65,2.73L29.89,60Z"/><path class="cls-1" d="M44.7,56.06H41.45v3h3.62V60h-4.7V51.62h4.52v.91H41.45v2.64H44.7Z"/><path class="cls-1" d="M49,51.73A11.3,11.3,0,0,1,51,51.56a3.43,3.43,0,0,1,2.42.68,2.08,2.08,0,0,1,.66,1.59A2.2,2.2,0,0,1,52.53,56v0a2.1,2.1,0,0,1,1.23,1.69A13.54,13.54,0,0,0,54.4,60H53.29a9.8,9.8,0,0,1-.56-2c-.25-1.15-.7-1.58-1.68-1.62H50V60H49ZM50,55.54h1.1c1.15,0,1.89-.63,1.89-1.59s-.79-1.55-1.93-1.56a4.32,4.32,0,0,0-1.06.1Z"/><path class="cls-1" d="M58,58.67a3.92,3.92,0,0,0,1.94.54c1.1,0,1.75-.58,1.75-1.42s-.45-1.23-1.58-1.67c-1.36-.48-2.21-1.19-2.21-2.37s1.08-2.27,2.71-2.27a3.78,3.78,0,0,1,1.84.41l-.29.88a3.32,3.32,0,0,0-1.59-.39c-1.14,0-1.57.68-1.57,1.25,0,.78.5,1.17,1.66,1.61,1.41.55,2.13,1.23,2.13,2.46s-1,2.41-2.93,2.41a4.31,4.31,0,0,1-2.13-.54Z"/><path class="cls-1" d="M42.28,6.87A6.85,6.85,0,0,0,30.83,1.78a6.85,6.85,0,0,0-9.68,9.68A6.78,6.78,0,0,0,19.37,16a6.85,6.85,0,0,0,11.46,5.09,6.78,6.78,0,0,0,4.58,1.78A6.86,6.86,0,0,0,42.28,16a6.78,6.78,0,0,0-1.78-4.58A6.83,6.83,0,0,0,42.28,6.87ZM30.83,18.33a6.88,6.88,0,1,1,6.87-6.87A6.88,6.88,0,0,1,30.83,18.33Z"/></g></g></svg>