<svg xmlns="http://www.w3.org/2000/svg" viewBox="0 0 54.84 54.84"><defs><style>.cls-1{fill:#fff;}</style></defs><g id="Слой_2" data-name="Слой 2"><g id="Layer_1" data-name="Layer 1"><path class="cls-1" d="M8.22,19.81,6.45,7H8.66l.8,8.49L10.55,7h1.91l1.07,8.45L14.37,7h2.21L14.79,19.81H12.57l-1.08-8.4-1.05,8.4Z"/><path class="cls-1" d="M16.41,19.81,19.18,7h2.3l2.76,12.83H21.68l-.52-2.75H19.48L19,19.81Zm3.25-4.34H21l-.64-4.76Z"/><path class="cls-1" d="M25.07,19.81V7h2.6V18h2.55v1.78Z"/><path class="cls-1" d="M31.05,19.81V7h2.59V18h2.55v1.78Z"/><path class="cls-1" d="M7.06,34.41V21.58h3.1a3,3,0,0,1,2.44.93,4.19,4.19,0,0,1,.76,2.7,6.19,6.19,0,0,1-.17,1.52,3.23,3.23,0,0,1-.46,1.06,2.38,2.38,0,0,1-.77.67,4,4,0,0,1-1,.35,6.83,6.83,0,0,1-1.27.11v5.49Zm2.62-7.32a1.94,1.94,0,0,0,.36,0l.28,0a.48.48,0,0,0,.22-.12l.15-.15a.41.41,0,0,0,.1-.21c0-.1.06-.18.07-.24s0-.16,0-.3,0-.25,0-.33v-.92c0-.09,0-.21,0-.36a1.08,1.08,0,0,0-.06-.33c0-.07-.08-.16-.14-.25a.49.49,0,0,0-.22-.21l-.32-.12a2,2,0,0,0-.45,0Z"/><path class="cls-1" d="M12.94,34.41l2.77-12.83H18l2.77,12.83H18.21l-.52-2.74H16l-.5,2.74Zm3.25-4.34h1.33l-.65-4.76Z"/><path class="cls-1" d="M21.6,34.41V21.58h2.6V34.41Z"/><path class="cls-1" d="M25.72,34.41V21.57h1.87l2.82,6.72V21.57h2.15V34.41H30.77L28,27.29v7.12Z"/><path class="cls-1" d="M35.31,34.41V23.52H33.43V21.58h6.32v1.94H37.9V34.41Z"/><path class="cls-1" d="M6.62,45.34l2.63-.5c0,.26,0,.49,0,.69a5.47,5.47,0,0,0,.08.65,2.27,2.27,0,0,0,.16.58,1.1,1.1,0,0,0,.29.38.72.72,0,0,0,.45.15c.51,0,.77-.33.77-1a3.72,3.72,0,0,0-1.52-2.69l-.81-.68-.61-.53c-.15-.15-.33-.34-.54-.58a3.82,3.82,0,0,1-.48-.7,3.71,3.71,0,0,1-.3-.82,4.17,4.17,0,0,1-.13-1,3.15,3.15,0,0,1,1-2.47,3.7,3.7,0,0,1,2.62-.91,3.11,3.11,0,0,1,2.32,1,3.18,3.18,0,0,1,1,2.34v.3l-2.68.37s0-.13,0-.24,0-.2,0-.28a3.91,3.91,0,0,0,0-.49,4.05,4.05,0,0,0-.12-.47.84.84,0,0,0-.25-.37.63.63,0,0,0-.42-.14.71.71,0,0,0-.64.33,1.46,1.46,0,0,0-.21.79,2.27,2.27,0,0,0,.12.75,2.1,2.1,0,0,0,.38.66,5.9,5.9,0,0,0,.47.5l.57.49c.24.19.4.33.5.42a10.17,10.17,0,0,1,.93.91,6.64,6.64,0,0,1,.71,1,4.25,4.25,0,0,1,.51,1.15,5.24,5.24,0,0,1,.16,1.34,2.83,2.83,0,0,1-1,2.21,3.4,3.4,0,0,1-2.34.86A3.63,3.63,0,0,1,8.65,49a2.92,2.92,0,0,1-1.12-.89,4.25,4.25,0,0,1-.65-1.25A5.26,5.26,0,0,1,6.62,45.34Z"/><path class="cls-1" d="M14.57,49V36.18h2.59v5.26H19V36.18h2.61V49H19V43.29H17.16V49Z"/><path class="cls-1" d="M23,44.79V40.48q0-4.54,3.76-4.55t3.75,4.55v4.25a8.9,8.9,0,0,1-.11,1.42A5.12,5.12,0,0,1,30,47.39a3.27,3.27,0,0,1-.7,1,2.92,2.92,0,0,1-1.07.65,4.29,4.29,0,0,1-1.48.24A4.21,4.21,0,0,1,25.27,49a3,3,0,0,1-1.07-.62,3.28,3.28,0,0,1-.69-1,4.67,4.67,0,0,1-.4-1.23A8.75,8.75,0,0,1,23,44.79Zm4.92.59V39.83c0-1.26-.39-1.89-1.16-1.89a1,1,0,0,0-.6.17,1,1,0,0,0-.35.48,2.67,2.67,0,0,0-.16.6,4.16,4.16,0,0,0-.05.64v5.55c0,1.26.38,1.89,1.16,1.89S27.91,46.64,27.91,45.38Z"/><path class="cls-1" d="M31.87,49V36.18H35a3,3,0,0,1,2.44.94,4.22,4.22,0,0,1,.76,2.7A6.1,6.1,0,0,1,38,41.33a3.15,3.15,0,0,1-.47,1.06,2.18,2.18,0,0,1-.77.67,3.16,3.16,0,0,1-1,.35,7.51,7.51,0,0,1-1.27.12V49Zm2.61-7.33.37,0,.28-.06a.45.45,0,0,0,.21-.12.78.78,0,0,0,.16-.15.51.51,0,0,0,.1-.21,1.4,1.4,0,0,0,.06-.24,1.43,1.43,0,0,0,0-.29c0-.14,0-.25,0-.34v-.91c0-.1,0-.22,0-.37a1.68,1.68,0,0,0-.07-.33,1.51,1.51,0,0,0-.13-.25.55.55,0,0,0-.22-.21,2,2,0,0,0-.32-.11,1.66,1.66,0,0,0-.46,0Z"/><path class="cls-1" d="M0,54.84V0H54.84V54.84Zm52.24-2.6v0ZM5.19,49.65H49.65V5.19H5.19V49.65Z"/></g></g></svg>