<svg xmlns="http://www.w3.org/2000/svg" viewBox="0 0 54.34 45.26"><defs><style>.cls-1{fill:#fff;}</style></defs><g id="Слой_2" data-name="Слой 2"><g id="Layer_1" data-name="Layer 1"><path class="cls-1" d="M0,38.15A8.37,8.37,0,0,1,1.67,38a2.92,2.92,0,0,1,2,.52,1.47,1.47,0,0,1,.59,1.25A1.69,1.69,0,0,1,3,41.32v0a1.83,1.83,0,0,1,1.46,1.78,1.91,1.91,0,0,1-.6,1.42,3.56,3.56,0,0,1-2.45.66A11.32,11.32,0,0,1,0,45.12Zm.92,2.9h.83c1,0,1.53-.51,1.53-1.19s-.63-1.15-1.56-1.15a4,4,0,0,0-.8.06Zm0,3.4a5,5,0,0,0,.76,0c1,0,1.82-.35,1.82-1.38s-.83-1.37-1.83-1.37H.92Z"/><path class="cls-1" d="M8.32,38.05v4.2c0,1.59.7,2.26,1.65,2.26s1.72-.7,1.72-2.26v-4.2h.93v4.14c0,2.17-1.15,3.07-2.68,3.07s-2.55-.84-2.55-3V38.05Z"/><path class="cls-1" d="M15.91,38.05h.91v6.32h3v.77H15.91Z"/><path class="cls-1" d="M22.57,38.05h.92v6.32h3v.77H22.57Z"/><path class="cls-1" d="M29.11,44a3.27,3.27,0,0,0,1.64.46c.94,0,1.49-.5,1.49-1.21s-.38-1-1.34-1.41c-1.16-.41-1.87-1-1.87-2a2,2,0,0,1,2.29-1.92,3.22,3.22,0,0,1,1.57.35l-.25.74a3,3,0,0,0-1.35-.33c-1,0-1.33.57-1.33,1.06,0,.66.42,1,1.4,1.36,1.2.47,1.81,1,1.81,2.09s-.81,2-2.48,2a3.71,3.71,0,0,1-1.81-.45Z"/><path class="cls-1" d="M39.79,41.82H37v2.55h3.07v.77h-4V38.05H40v.77H37v2.24h2.75Z"/><path class="cls-1" d="M44.61,45.14v-3l-2.24-4.08h1l1,2c.27.53.48,1,.7,1.46h0c.2-.46.45-.93.72-1.46l1-2h1l-2.37,4.07v3Z"/><path class="cls-1" d="M54,41.82H51.27v2.55h3.07v.77h-4V38.05h3.83v.77H51.27v2.24H54Z"/><path class="cls-1" d="M27,0A15.34,15.34,0,1,0,42.3,15.33,15.34,15.34,0,0,0,27,0Zm0,24.82a9.49,9.49,0,1,1,9.5-9.49A9.49,9.49,0,0,1,27,24.82Z"/><path class="cls-1" d="M29.16,15.33A2.2,2.2,0,1,1,27,13.14,2.2,2.2,0,0,1,29.16,15.33Z"/></g></g></svg>