<svg xmlns="http://www.w3.org/2000/svg" viewBox="0 0 97.37 28.31"><defs><style>.cls-1{fill:#fff;}</style></defs><g id="Слой_2" data-name="Слой 2"><g id="Layer_1" data-name="Layer 1"><path class="cls-1" d="M16,18.77c1.1,0,1.87-.74,2.3-2.22l1.59.81a5.11,5.11,0,0,1-1.51,2.51,3.61,3.61,0,0,1-2.38.82,3.77,3.77,0,0,1-3.26-1.59,7.49,7.49,0,0,1-1.16-4.46,7.42,7.42,0,0,1,1.12-4.4A3.71,3.71,0,0,1,15.92,8.7a3.71,3.71,0,0,1,2.5.82,4.41,4.41,0,0,1,1.36,2.42l-1.61.59a2.59,2.59,0,0,0-.81-1.4A2.11,2.11,0,0,0,16,10.62a2.08,2.08,0,0,0-1.88,1,5.72,5.72,0,0,0-.64,3,5.84,5.84,0,0,0,.66,3.07A2.1,2.1,0,0,0,16,18.77Z"/><path class="cls-1" d="M29.08,20.53v-5H25.27v5H23.44V8.87h1.83v4.64h3.81V8.87h1.83V20.53Z"/><path class="cls-1" d="M35,20.53V8.87h1.83V20.53Z"/><path class="cls-1" d="M48,12.56a4.94,4.94,0,0,1-.38,2,3.08,3.08,0,0,1-1.1,1.37,3,3,0,0,1-1.7.48H42.67v4.11H40.84V8.87h3.93a3.06,3.06,0,0,1,2.42,1A4.05,4.05,0,0,1,48,12.56Zm-1.84,0c0-1.22-.54-1.84-1.62-1.84h-1.9v3.78h1.95a1.39,1.39,0,0,0,1.16-.5A2.23,2.23,0,0,0,46.19,12.6Z"/><path class="cls-1" d="M58.86,12.56a4.94,4.94,0,0,1-.39,2,3,3,0,0,1-1.1,1.37,3,3,0,0,1-1.7.48H53.5v4.11H51.67V8.87H55.6a3,3,0,0,1,2.41,1A4,4,0,0,1,58.86,12.56ZM57,12.6c0-1.22-.55-1.84-1.63-1.84H53.5v3.78h1.94a1.42,1.42,0,0,0,1.17-.5A2.23,2.23,0,0,0,57,12.6Z"/><path class="cls-1" d="M66.8,15.74v4.79H65V15.74L61.86,8.87h1.92l2.09,4.93L68,8.87h1.91Z"/><path class="cls-1" d="M74.66,13.1H73.3l-.16-4.23h1.69Z"/><path class="cls-1" d="M85.82,17.17a3.44,3.44,0,0,1-1,2.62,3.9,3.9,0,0,1-2.79.9,4,4,0,0,1-2.64-.79,3.93,3.93,0,0,1-1.23-2.41L80,17.1a2.18,2.18,0,0,0,.7,1.34,2.26,2.26,0,0,0,1.45.42c1.28,0,1.92-.52,1.92-1.55a1.47,1.47,0,0,0-.22-.82,1.68,1.68,0,0,0-.63-.54,8,8,0,0,0-1.53-.52,11.05,11.05,0,0,1-1.36-.49,3.78,3.78,0,0,1-.7-.44,2.4,2.4,0,0,1-.53-.61,3.51,3.51,0,0,1-.34-.83,4.57,4.57,0,0,1-.12-1.1,3.17,3.17,0,0,1,.89-2.42,3.65,3.65,0,0,1,2.59-.84,3.74,3.74,0,0,1,2.44.67,3.51,3.51,0,0,1,1.06,2.25l-1.78.32a1.92,1.92,0,0,0-.55-1.13,1.7,1.7,0,0,0-1.2-.38c-1.11,0-1.67.46-1.67,1.39a1.37,1.37,0,0,0,.18.74,1.45,1.45,0,0,0,.52.49,7.13,7.13,0,0,0,1.41.51,9.3,9.3,0,0,1,1.8.66,2.66,2.66,0,0,1,.86.7,2.72,2.72,0,0,1,.49,1A4.53,4.53,0,0,1,85.82,17.17Z"/><path class="cls-1" d="M27.17,2.86V0h.59V2.86Z"/><path class="cls-1" d="M30.51,2.43a.75.75,0,0,0,.74-.53l.51.19a1.25,1.25,0,0,1-.49.61,1.43,1.43,0,0,1-.76.2,1.36,1.36,0,0,1-1.05-.39,1.47,1.47,0,0,1-.37-1.07A1.47,1.47,0,0,1,29.44.37a1.38,1.38,0,0,1,1-.37,1.52,1.52,0,0,1,.81.2,1.07,1.07,0,0,1,.43.58L31.2.92A.59.59,0,0,0,31,.59a.78.78,0,0,0-.46-.13.75.75,0,0,0-.6.25,1.11,1.11,0,0,0-.21.73,1.14,1.14,0,0,0,.21.74A.76.76,0,0,0,30.51,2.43Z"/><path class="cls-1" d="M33,2.86V0h2.21V.5H33.62v.7h1.5v.46h-1.5V2.4h1.71v.46Z"/><path class="cls-1" d="M40,2.43a.75.75,0,0,0,.74-.53l.52.19a1.31,1.31,0,0,1-.49.61,1.45,1.45,0,0,1-.77.2,1.39,1.39,0,0,1-1-.39,1.51,1.51,0,0,1-.37-1.07A1.47,1.47,0,0,1,38.92.37,1.36,1.36,0,0,1,40,0a1.46,1.46,0,0,1,.8.2,1,1,0,0,1,.44.58l-.52.14a.57.57,0,0,0-.26-.33.86.86,0,0,0-1.06.12,1.18,1.18,0,0,0-.2.73,1.14,1.14,0,0,0,.21.74A.75.75,0,0,0,40,2.43Z"/><path class="cls-1" d="M44.44,2.86l-.65-1.07H43.1V2.86h-.59V0h1.41a1.18,1.18,0,0,1,.77.22A.74.74,0,0,1,45,.88a.8.8,0,0,1-.16.51.78.78,0,0,1-.46.28l.76,1.19ZM44.37.91c0-.28-.17-.41-.52-.41H43.1v.83h.77a.56.56,0,0,0,.37-.11A.39.39,0,0,0,44.37.91Z"/><path class="cls-1" d="M46.35,2.86V0h2.21V.5H46.94v.7h1.5v.46h-1.5V2.4h1.7v.46Z"/><path class="cls-1" d="M52,2.86l-.25-.72H50.63l-.25.72h-.59l1-2.82h.69l1,2.82ZM51.17.48l0,0a1.24,1.24,0,0,1,0,.16c0,.07-.14.4-.35,1h.81L51.29.88,51.21.61Z"/><path class="cls-1" d="M56.14,2.86V1s0-.21,0-.5c-.09.36-.16.6-.21.75l-.51,1.57H55l-.5-1.57L54.3.54c0,.31,0,.51,0,.61V2.86H53.8V0h.79l.51,1.58,0,.15.1.37.12-.45L55.88,0h.78V2.86Z"/><path class="cls-1" d="M62.61,2.05a.7.7,0,0,1-.28.6,1.36,1.36,0,0,1-.8.21H60.12V0h1.29a1.41,1.41,0,0,1,.78.18.61.61,0,0,1,.26.53.6.6,0,0,1-.13.4.69.69,0,0,1-.4.23.83.83,0,0,1,.52.21A.65.65,0,0,1,62.61,2.05ZM61.86.83a.29.29,0,0,0-.12-.27.69.69,0,0,0-.36-.08h-.67v.7h.67a.61.61,0,0,0,.37-.09A.32.32,0,0,0,61.86.83ZM62,2c0-.27-.19-.4-.56-.4h-.75v.81h.77a.7.7,0,0,0,.41-.1A.37.37,0,0,0,62,2Z"/><path class="cls-1" d="M66,2.86l-.25-.72H64.63l-.25.72h-.59l1-2.82h.69l1,2.82ZM65.16.48v0a1.42,1.42,0,0,1-.05.16c0,.07-.13.4-.34,1h.81L65.29.88,65.2.61Z"/><path class="cls-1" d="M69.73,2.86l-.65-1.07h-.69V2.86H67.8V0h1.41A1.18,1.18,0,0,1,70,.26a.72.72,0,0,1,.28.62.8.8,0,0,1-.17.51.76.76,0,0,1-.45.28l.76,1.19ZM69.66.91c0-.28-.17-.41-.52-.41h-.75v.83h.77a.59.59,0,0,0,.38-.11A.41.41,0,0,0,69.66.91Z"/><polygon class="cls-1" points="0 28.31 0 1.03 22.4 1.03 22.4 2.02 0.99 2.02 0.99 27.31 96.38 27.31 96.38 2.02 74.97 2.02 74.97 1.03 97.37 1.03 97.37 28.31 0 28.31 0 28.31"/></g></g></svg>