<svg xmlns="http://www.w3.org/2000/svg" viewBox="0 0 96.38 20.44"><defs><style>.cls-1{fill:#fff;}</style></defs><g id="Слой_2" data-name="Слой 2"><g id="Layer_1" data-name="Layer 1"><path class="cls-1" d="M11.56,14.21a8.94,8.94,0,0,1-2.9.51,4.87,4.87,0,0,1-3.53-1.24A4.89,4.89,0,0,1,3.81,10,4.74,4.74,0,0,1,8.93,5.08a5.72,5.72,0,0,1,2.35.44l-.29,1a5,5,0,0,0-2.09-.4A3.53,3.53,0,0,0,5.1,9.9a3.46,3.46,0,0,0,3.65,3.81,4,4,0,0,0,1.62-.25V10.65H8.45v-1h3.11Z"/><path class="cls-1" d="M21.5,9.81c0,3.25-2,5-4.38,5S12.87,12.85,12.87,10s1.86-5,4.39-5S21.5,7,21.5,9.81ZM14.18,10c0,2,1.09,3.83,3,3.83s3-1.78,3-3.93c0-1.88-1-3.84-3-3.84S14.18,7.89,14.18,10Z"/><path class="cls-1" d="M23.09,5.18h1.22V13.6h4v1H23.09Z"/><path class="cls-1" d="M29.71,5.31a17.61,17.61,0,0,1,2.59-.2,5.43,5.43,0,0,1,3.83,1.18,4.34,4.34,0,0,1,1.33,3.39,5,5,0,0,1-1.36,3.67,5.85,5.85,0,0,1-4.18,1.36,19.57,19.57,0,0,1-2.21-.11Zm1.22,8.35a8.33,8.33,0,0,0,1.23.07c2.61,0,4-1.46,4-4,0-2.23-1.25-3.64-3.82-3.64a6.24,6.24,0,0,0-1.43.13Z"/><path class="cls-1" d="M43.93,10.2H40.26v3.4h4.1v1H39V5.18h5.1v1H40.26v3h3.67Z"/><path class="cls-1" d="M0,0V20.44H96.38V0ZM45.69,17.94H2.5V2.5H45.69Zm14.06-3.73a8.94,8.94,0,0,1-2.9.51,4.87,4.87,0,0,1-3.53-1.24A4.88,4.88,0,0,1,52,10a4.73,4.73,0,0,1,5.11-4.88,5.72,5.72,0,0,1,2.35.44l-.29,1a5,5,0,0,0-2.09-.4,3.53,3.53,0,0,0-3.8,3.79,3.46,3.46,0,0,0,3.65,3.81,4,4,0,0,0,1.62-.25V10.65H56.64v-1h3.11Zm5.56.57c-2.5,0-4.25-1.93-4.25-4.79s1.87-5,4.39-5,4.24,2,4.24,4.78C69.69,13.06,67.72,14.78,65.31,14.78Zm11.22-.15H71.28V5.18H72.5V13.6h4Zm7.76-1.28a5.85,5.85,0,0,1-4.18,1.36,19.57,19.57,0,0,1-2.21-.11V5.31a17.61,17.61,0,0,1,2.59-.2,5.39,5.39,0,0,1,3.82,1.18,4.34,4.34,0,0,1,1.33,3.39A5,5,0,0,1,84.29,13.35Zm8.25,1.28H87.23V5.18h5.1v1H88.45v3h3.68v1H88.45v3.4h4.09Zm-12-8.55a6.14,6.14,0,0,0-1.42.13v7.45a8.33,8.33,0,0,0,1.23.07c2.61,0,4-1.46,4-4C84.38,7.49,83.13,6.08,80.54,6.08ZM65.39,6c-2,0-3,1.87-3,3.94s1.1,3.83,3,3.83,3-1.78,3-3.93C68.4,8,67.42,6,65.39,6Z"/></g></g></svg>